<svg xmlns="http://www.w3.org/2000/svg" xmlns:xlink="http://www.w3.org/1999/xlink" viewBox="0,0,256,256" width="500px" height="500px" fill-rule="nonzero"><g fill="#2335db" fill-rule="nonzero" stroke="none" stroke-width="1" stroke-linecap="butt" stroke-linejoin="miter" stroke-miterlimit="10" stroke-dasharray="" stroke-dashoffset="0" font-family="none" font-weight="none" font-size="none" text-anchor="none" style="mix-blend-mode: normal"><g transform="scale(5.12,5.12)"><path d="M7,2v46h36v-32.58594l-13.58984,-13.41406zM9,4h19v13h13v29h-32zM30,5.39063l9.73438,9.60938h-9.73437zM33.5,21.33203c-1.04297,0.00391 -1.89062,0.82422 -1.89062,1.83594c0.00391,1.01172 0.84766,1.83203 1.89063,1.83203c1.04297,0 1.88672,-0.82031 1.89063,-1.83203c0,-1.01172 -0.84766,-1.83203 -1.89062,-1.83594zM21.16797,24c-0.33203,-0.01172 -0.64844,0.13672 -0.84375,0.40625l-7.46094,10.08203c-0.22266,0.30469 -0.25781,0.70703 -0.08984,1.04297c0.17188,0.33984 0.51563,0.55078 0.89453,0.55078h14.75781c0.02344,0 0.04688,0 0.07031,0c0.00391,0 0.00391,0 0.00781,0l6.51172,-0.08203c0.38281,-0.00391 0.72656,-0.23047 0.89063,-0.57812c0.16016,-0.34766 0.10938,-0.75391 -0.12891,-1.05078l-6.50781,-7.98437c-0.19141,-0.23828 -0.48437,-0.375 -0.78906,-0.37109c-0.31641,0.00781 -0.60937,0.16016 -0.79297,0.41406l-2.13281,2.93359l-3.61719,-4.95312c-0.18359,-0.24609 -0.46484,-0.39844 -0.76953,-0.41016zM21.125,26.6875l3.62891,4.97266c0.00391,0.00781 0.00781,0.01172 0.01172,0.01563l1.75781,2.40625h-10.87109zM28.53906,28.65625l4.37891,5.37109l-3.91797,0.05078l-2.20312,-3.01562z"></path></g></g></svg>